<svg xmlns="http://www.w3.org/2000/svg" xmlns:xlink="http://www.w3.org/1999/xlink" version="1.1" x="0px" y="0px" viewBox="0 0 67 83.75" enable-background="new 0 0 67 67" xml:space="preserve" fill="white"><g style="fill:rgb(255, 255, 255);stroke:none;color:rgb(255, 255, 255);stroke-width:1px;stroke-linecap:butt;stroke-linejoin:miter;opacity:1;font-family:&quot;Anthropic Sans&quot;, -apple-system, BlinkMacSystemFont, &quot;Segoe UI&quot;, sans-serif;font-size:16px;font-weight:400;text-anchor:start;dominant-baseline:auto"><path d="M15.5796843,56.4708862c3.7827158,2.1686401,13.6035776,7.5286255,18.2763672,7.5286255   c0.1064453,0,0.2109375-0.0029297,0.3115234-0.0083008c8.2412109-0.4624023,27.6591606-14.1254883,28.9492188-15.0395508   c2.6429405-1.5354042,2.7547646-5.3691101,0.1181641-7.0209961c-1.203125-0.7543945-2.6865234-0.8354492-3.9638672-0.2167969   l-11.9763184,5.7854614c-0.0643425-2.3047485-1.934063-4.0510864-4.1564941-4.0510864h-0.0009766l-6.8759766,0.0019531   c-3.4013672-2.9521484-7.7431641-4.7607422-11.6914063-4.8544922c-3.8733521-0.0924683-7.3511353-0.1185303-8.9902353-0.1259155   v-1.9644165H1.8433563v22.6513672h13.7363281V56.4708862z M24.5230446,40.5947266   c3.5966797,0.0859375,7.5927734,1.8046875,10.6894531,4.5981445l0.2861328,0.2573242l7.6386719-0.0019531   c0.0009766,0,0.0009766,0,0.0009766,0c1.1973801,0,2.1679688,0.9695625,2.1679688,2.1689453   c0,1.1958008-0.9726563,2.168457-2.1689453,2.168457H29.1207008v2h14.0166016c1.3494263,0,2.5386963-0.6547852,3.3010864-1.6520386   l13.7028198-6.6194458c0.6669922-0.3208008,1.40625-0.28125,2.03125,0.1108398   c1.3765564,0.8633003,1.2764435,2.8450317-0.0849609,3.6113281l-0.0888672,0.0561523   c-0.2011719,0.1425781-20.1708984,14.265625-27.9423828,14.7016602c-3.9714355,0.225647-14.2461548-5.3352661-18.4765625-7.8358765   V40.4697876C17.2128639,40.4771118,20.6710548,40.5030518,24.5230446,40.5947266z M13.5796843,57.1567383H3.8433564V38.5053711   h9.7363281V57.1567383z" style="fill:rgb(255, 255, 255);stroke:none;color:rgb(255, 255, 255);stroke-width:1px;stroke-linecap:butt;stroke-linejoin:miter;opacity:1;font-family:&quot;Anthropic Sans&quot;, -apple-system, BlinkMacSystemFont, &quot;Segoe UI&quot;, sans-serif;font-size:16px;font-weight:400;text-anchor:start;dominant-baseline:auto"/><rect x="9.7540283" y="44.8486328" width="2.0000002" height="1.8041995" style="fill:rgb(255, 255, 255);stroke:none;color:rgb(255, 255, 255);stroke-width:1px;stroke-linecap:butt;stroke-linejoin:miter;opacity:1;font-family:&quot;Anthropic Sans&quot;, -apple-system, BlinkMacSystemFont, &quot;Segoe UI&quot;, sans-serif;font-size:16px;font-weight:400;text-anchor:start;dominant-baseline:auto"/><rect x="9.75354" y="48.4477539" width="2" height="1.8041992" style="fill:rgb(255, 255, 255);stroke:none;color:rgb(255, 255, 255);stroke-width:1px;stroke-linecap:butt;stroke-linejoin:miter;opacity:1;font-family:&quot;Anthropic Sans&quot;, -apple-system, BlinkMacSystemFont, &quot;Segoe UI&quot;, sans-serif;font-size:16px;font-weight:400;text-anchor:start;dominant-baseline:auto"/><rect x="9.75354" y="52.046875" width="2" height="1.8041992" style="fill:rgb(255, 255, 255);stroke:none;color:rgb(255, 255, 255);stroke-width:1px;stroke-linecap:butt;stroke-linejoin:miter;opacity:1;font-family:&quot;Anthropic Sans&quot;, -apple-system, BlinkMacSystemFont, &quot;Segoe UI&quot;, sans-serif;font-size:16px;font-weight:400;text-anchor:start;dominant-baseline:auto"/><path d="M44.3873024,12.769042c0-5.3862309-4.3867188-9.7685547-9.7783203-9.7685547s-9.7783203,4.3823242-9.7783203,9.7685547   c0,5.3916006,4.3867188,9.7783194,9.7783203,9.7783194S44.3873024,18.1606426,44.3873024,12.769042z M26.8306618,12.769042   c0-4.2836914,3.4892578-7.7685552,7.7783203-7.7685552s7.7783203,3.4848638,7.7783203,7.7685552   c0,4.2890615-3.4892578,7.7783194-7.7783203,7.7783194S26.8306618,17.0581036,26.8306618,12.769042z" style="fill:rgb(255, 255, 255);stroke:none;color:rgb(255, 255, 255);stroke-width:1px;stroke-linecap:butt;stroke-linejoin:miter;opacity:1;font-family:&quot;Anthropic Sans&quot;, -apple-system, BlinkMacSystemFont, &quot;Segoe UI&quot;, sans-serif;font-size:16px;font-weight:400;text-anchor:start;dominant-baseline:auto"/><path d="M48.053318,31.9653301c5.3916016,0,9.7783203-4.3867188,9.7783203-9.7783203   c0-5.3862305-4.3867188-9.7685537-9.7783203-9.7685537c-0.671875,0-1.3349609,0.0654297-1.9707031,0.1948242l0.3984375,1.9599609   c0.5048828-0.1025391,1.0341797-0.1547852,1.5722656-0.1547852c4.2890625,0,7.7783203,3.4848623,7.7783203,7.7685537   c0,4.2890625-3.4892578,7.7783203-7.7783203,7.7783203c-3.8417969,0-7.1523438-2.8657227-7.7001953-6.6655273L38.372654,23.584959   C39.0621071,28.3627911,43.2232399,31.9653301,48.053318,31.9653301z" style="fill:rgb(255, 255, 255);stroke:none;color:rgb(255, 255, 255);stroke-width:1px;stroke-linecap:butt;stroke-linejoin:miter;opacity:1;font-family:&quot;Anthropic Sans&quot;, -apple-system, BlinkMacSystemFont, &quot;Segoe UI&quot;, sans-serif;font-size:16px;font-weight:400;text-anchor:start;dominant-baseline:auto"/><path d="M11.3853483,22.1870098c0,5.3916016,4.3818359,9.7783203,9.7685556,9.7783203   c4.8300781,0,8.9912109-3.6025391,9.6806641-8.3803711l-1.9804688-0.2851563   c-0.5478516,3.7998047-3.8583984,6.6655273-7.7001953,6.6655273c-4.2832031,0-7.7685556-3.4892578-7.7685556-7.7783203   c0-4.2836914,3.4853525-7.7685537,7.7685556-7.7685537c0.5595703,0,1.0761719,0.0527344,1.5791016,0.1621094l0.4238281-1.9550781   c-0.6445313-0.1391602-1.2988281-0.2070313-2.0029297-0.2070313   C15.7671843,12.4184561,11.3853483,16.8007793,11.3853483,22.1870098z" style="fill:rgb(255, 255, 255);stroke:none;color:rgb(255, 255, 255);stroke-width:1px;stroke-linecap:butt;stroke-linejoin:miter;opacity:1;font-family:&quot;Anthropic Sans&quot;, -apple-system, BlinkMacSystemFont, &quot;Segoe UI&quot;, sans-serif;font-size:16px;font-weight:400;text-anchor:start;dominant-baseline:auto"/><path d="M35.1824684,18.4340191v-0.9829712c1.7343102-0.0851593,3.0861816-1.064476,3.0861816-2.765563   c0-2.0938072-1.6619606-2.3510399-3.0861816-2.8200073V9.2982779c0.7006836,0.1005859,1.3519287,0.364502,1.9526367,0.7923584   l0.8879395-1.2563477c-0.892395-0.6101074-1.8392334-0.9512944-2.8405762-1.0246587v-0.696228h-0.8740845v0.6829224   c-1.6771965,0.0864921-2.9772339,1.0904231-2.9772339,2.7516484c0,1.7264652,1.1699562,2.320303,2.9772339,2.7516479v2.6494751   c-0.8101196-0.1278076-1.5975342-0.5234375-2.3626709-1.1880493l-0.9968872,1.1880493   c0.9924316,0.8646231,2.1121216,1.3608389,3.3595581,1.4880362v0.9968872H35.1824684z M35.1824684,13.5319204   c0.8088074,0.2427588,1.4202881,0.4921007,1.4202881,1.2835693c0,0.7345886-0.6905899,1.0989809-1.4202881,1.1741333V13.5319204z    M32.9975929,10.3840322c0-0.6959114,0.6086617-1.0639954,1.310791-1.1268921v2.3627319   C33.5466347,11.3750401,32.9975929,11.1392622,32.9975929,10.3840322z" style="fill:rgb(255, 255, 255);stroke:none;color:rgb(255, 255, 255);stroke-width:1px;stroke-linecap:butt;stroke-linejoin:miter;opacity:1;font-family:&quot;Anthropic Sans&quot;, -apple-system, BlinkMacSystemFont, &quot;Segoe UI&quot;, sans-serif;font-size:16px;font-weight:400;text-anchor:start;dominant-baseline:auto"/><path d="M22.0108376,19.3126812c0.7257099,0,1.3269196,0.3833294,1.899292,0.8363647l0.59729-1.3380737   c-0.6511745-0.6337681-1.6834049-0.979248-2.5802002-0.979248c-1.734436,0-2.796072,1.1510277-3.1415405,2.8786011h-1.0632324   v1.0990601h0.9317017c-0.0079346,0.0795898-0.0118408,0.203125-0.0118408,0.3703003   c0,0.175354,0.0039063,0.3026123,0.0118408,0.3822021h-0.9317017v1.0990601h1.0632324   c0.3454342,1.7427158,1.4068642,2.8907471,3.1415405,2.8907471c0.8958302,0,1.9301796-0.3461399,2.5802002-0.9795532   l-0.59729-1.3377686c-0.5764503,0.4562645-1.1761456,0.8361206-1.899292,0.8361206   c-0.8512115,0-1.2210789-0.5804634-1.397644-1.4095459h1.7798462v-1.0990601h-1.899353v-0.3822021v-0.3703003h1.899353v-1.0990601   h-1.7798462c0.1034546-0.4776611,0.2687988-0.8302002,0.4957275-1.0570068   C21.3359108,19.4262066,21.6364479,19.3126812,22.0108376,19.3126812z" style="fill:rgb(255, 255, 255);stroke:none;color:rgb(255, 255, 255);stroke-width:1px;stroke-linecap:butt;stroke-linejoin:miter;opacity:1;font-family:&quot;Anthropic Sans&quot;, -apple-system, BlinkMacSystemFont, &quot;Segoe UI&quot;, sans-serif;font-size:16px;font-weight:400;text-anchor:start;dominant-baseline:auto"/><polygon points="49.7870827,18.383543 48.0972023,21.0043316 46.4069557,18.383543 44.6206398,18.383543 46.8349342,21.6568584    45.572422,21.6568584 45.572422,22.6411114 47.2520485,22.6411114 47.2520485,23.3041973 45.572422,23.3041973    45.572422,24.2884502 47.2520485,24.2884502 47.2520485,25.999876 48.9313698,25.999876 48.9313698,24.2884502    50.6216164,24.2884502 50.6216164,23.3041973 48.9313698,23.3041973 48.9313698,22.6411114 50.6216164,22.6411114    50.6216164,21.6568584 49.3593483,21.6568584 51.5737038,18.383543  " style="fill:rgb(255, 255, 255);stroke:none;color:rgb(255, 255, 255);stroke-width:1px;stroke-linecap:butt;stroke-linejoin:miter;opacity:1;font-family:&quot;Anthropic Sans&quot;, -apple-system, BlinkMacSystemFont, &quot;Segoe UI&quot;, sans-serif;font-size:16px;font-weight:400;text-anchor:start;dominant-baseline:auto"/></g></svg>
