<svg width="100%" viewBox="0 0 680 680" role="img" xmlns="http://www.w3.org/2000/svg">
<title style="fill:rgb(0, 0, 0);stroke:none;color:rgb(255, 255, 255);stroke-width:1px;stroke-linecap:butt;stroke-linejoin:miter;opacity:1;font-family:&quot;Anthropic Sans&quot;, -apple-system, BlinkMacSystemFont, &quot;Segoe UI&quot;, sans-serif;font-size:16px;font-weight:400;text-anchor:start;dominant-baseline:auto">Snaptools icon</title>
<desc style="fill:rgb(0, 0, 0);stroke:none;color:rgb(255, 255, 255);stroke-width:1px;stroke-linecap:butt;stroke-linejoin:miter;opacity:1;font-family:&quot;Anthropic Sans&quot;, -apple-system, BlinkMacSystemFont, &quot;Segoe UI&quot;, sans-serif;font-size:16px;font-weight:400;text-anchor:start;dominant-baseline:auto">Lightning bolt and wrench combined icon</desc>
<g transform="translate(340,340) scale(1.6)" style="fill:rgb(0, 0, 0);stroke:none;color:rgb(255, 255, 255);stroke-width:1px;stroke-linecap:butt;stroke-linejoin:miter;opacity:1;font-family:&quot;Anthropic Sans&quot;, -apple-system, BlinkMacSystemFont, &quot;Segoe UI&quot;, sans-serif;font-size:16px;font-weight:400;text-anchor:start;dominant-baseline:auto">
<path d="M0 0 C0.886875 0.2475 1.77375 0.495 2.6875 0.75 C4.99782541 8.20751552 1.47389465 13.65235831 -1.75 20.375 C-2.64284905 22.2888167 -3.52872266 24.20576142 -4.4140625 26.12306213 C-5.04408157 27.48721447 -5.67596204 28.85050847 -6.30957031 30.21299744 C-10.27139842 38.75556641 -13.97126591 47.41106037 -17.6875 56.0625 C-18.66885074 58.34237547 -19.65079006 60.62199428 -20.6335907 62.90124512 C-21.26308114 64.36337592 -21.89064917 65.82633604 -22.51618958 67.29016113 C-24.08933428 70.96258953 -25.69951355 74.61108275 -27.37988281 78.23583984 C-27.7108194 78.95982468 -28.04175598 79.68380951 -28.38272095 80.42973328 C-29.01049402 81.7990308 -29.64885273 83.16354429 -30.2996521 84.52204895 C-32.09104841 88.45760438 -32.34883178 90.60790263 -31.3125 94.75 C-30.3920842 94.75586624 -29.4716684 94.76173248 -28.52336121 94.76777649 C-19.85631399 94.82564037 -11.18952621 94.8976806 -2.52273083 94.98571491 C1.93315135 95.03047428 6.38894092 95.06971793 10.8449707 95.09643555 C15.14397199 95.12241328 19.44261796 95.16277588 23.74139977 95.21318626 C25.38282546 95.22989255 27.02431266 95.24138336 28.66581154 95.24761391 C30.96223981 95.25721446 33.25775131 95.28522314 35.55395508 95.31762695 C37.5158654 95.33428154 37.5158654 95.33428154 39.51741028 95.35127258 C42.6875 95.75 42.6875 95.75 44.69584656 96.83952332 C46.36900744 100.06296279 45.60922834 102.32782653 44.6875 105.75 C42.66473389 108.47410583 42.66473389 108.47410583 39.97167969 111.09936523 C39.48213303 111.58496918 38.99258636 112.07057312 38.48820496 112.57089233 C36.87530287 114.16440839 35.2425531 115.73588924 33.609375 117.30859375 C32.47782491 118.42130809 31.34782253 119.53559834 30.21929932 120.65138245 C27.24826302 123.58258327 24.2610025 126.49662164 21.26861572 129.40600586 C16.49057499 134.05456601 11.73239654 138.72321784 6.98423004 143.40226936 C5.33129705 145.02480472 3.66837265 146.63654153 2.00408936 148.24742126 C-6.73804319 156.77273998 -11.59518009 164.75821848 -16.0703125 176.1171875 C-16.50004364 177.19195343 -16.92977478 178.26671936 -17.37252808 179.37405396 C-18.27532859 181.63673044 -19.17436522 183.90091197 -20.06982422 186.16650391 C-21.43189633 189.61082977 -22.8067427 193.0498403 -24.18359375 196.48828125 C-25.06326085 198.69761388 -25.94219158 200.90723987 -26.8203125 203.1171875 C-27.22661896 204.13416718 -27.63292542 205.15114685 -28.05154419 206.19894409 C-34.72710358 222.43358035 -34.72710358 222.43358035 -32.8125 239.375 C-31.14118028 243.17128337 -29.2542451 246.85164972 -27.37158203 250.54589844 C-23.67755047 257.79771328 -20.46593615 264.86162337 -18.3125 272.75 C-17.97605469 273.97203125 -17.97605469 273.97203125 -17.6328125 275.21875 C-13.18955146 293.96565958 -17.82193022 313.39043785 -27.0625 329.875 C-30.52468184 335.40561355 -34.74875462 340.10770478 -39.3125 344.75 C-39.92738281 345.37777344 -40.54226563 346.00554687 -41.17578125 346.65234375 C-53.05046972 357.86591466 -70.56246573 365.83886524 -86.97998047 365.76855469 C-87.79111298 365.76587585 -88.60224548 365.76319702 -89.43795776 365.76043701 C-90.0565567 365.7569928 -90.67515564 365.75354858 -91.3125 365.75 C-86.96984602 353.18684813 -82.30528457 340.7677601 -77.5 328.375 C-76.47996971 325.73849532 -75.46064018 323.10172196 -74.44197083 320.46469116 C-73.81520265 318.84277073 -73.18754982 317.22119181 -72.55888367 315.6000061 C-69.03327874 306.89910332 -69.03327874 306.89910332 -69.9375 297.7265625 C-73.27979195 290.91142032 -79.33260172 289.00585203 -86.14550781 286.54150391 C-88.52613828 285.67196763 -90.88311265 284.75057379 -93.2421875 283.82421875 C-94.93156823 283.17260047 -96.62166745 282.52284172 -98.3125 281.875 C-99.11316895 281.56425537 -99.91383789 281.25351074 -100.73876953 280.93334961 C-105.05501593 279.33028899 -108.63619664 278.21576356 -113.3125 278.75 C-119.59551957 282.14283057 -123.10381336 286.59850307 -125.72265625 293.16015625 C-126.15022217 294.22000732 -126.57778809 295.2798584 -127.01831055 296.37182617 C-127.68987183 298.07495972 -127.68987183 298.07495972 -128.375 299.8125 C-129.08039917 301.57267456 -129.08039917 301.57267456 -129.80004883 303.3684082 C-131.3147966 307.15816407 -132.81540675 310.95325047 -134.3125 314.75 C-134.84008027 316.08499611 -135.36775015 317.41995682 -135.89550781 318.75488281 C-139.05292446 326.74608244 -142.19087896 334.74474383 -145.3125 342.75 C-145.9725 342.75 -146.6325 342.75 -147.3125 342.75 C-162.72650825 325.60937169 -168.42041951 305.50179892 -167.76171875 282.875 C-166.66103746 262.94557734 -156.63585742 246.29697692 -142.4921875 232.62109375 C-133.35977849 224.78162437 -122.20695104 219.37482826 -110.6875 216.1015625 C-109.68041992 215.81410156 -108.67333984 215.52664063 -107.63574219 215.23046875 C-105.63793865 214.67435947 -103.63340022 214.14172221 -101.62207031 213.63671875 C-92.97263052 211.25923171 -87.15034637 207.39275175 -82.41699219 199.64892578 C-80.50905757 195.97890892 -78.76491004 192.26795861 -77.0625 188.5 C-76.42679867 187.13334267 -75.78923478 185.76755033 -75.14990234 184.40258789 C-73.83872344 181.59468591 -72.54013497 178.78145576 -71.25097656 175.96337891 C-69.36901066 171.85713155 -67.43541445 167.7767444 -65.4921875 163.69921875 C-64.59303544 161.80262784 -63.69527272 159.90538946 -62.79846191 158.00769043 C-61.95494159 156.22437389 -61.10787869 154.44273439 -60.26074219 152.66113281 C-59.75446289 151.57541992 -59.24818359 150.48970703 -58.7265625 149.37109375 C-58.2826416 148.4267749 -57.8387207 147.48245605 -57.38134766 146.50952148 C-56.24268658 143.56975764 -55.64362411 140.88214075 -55.3125 137.75 C-57.16322424 135.89927576 -60.20648745 136.62497189 -62.68066406 136.62402344 C-63.34577499 136.6221553 -64.01088593 136.62028717 -64.69615173 136.61836243 C-66.14540467 136.61434938 -67.59466398 136.61228276 -69.04392242 136.61190033 C-72.12502307 136.60849398 -75.20591095 136.58713996 -78.28693771 136.56666946 C-84.02807047 136.52860962 -89.76898075 136.49738243 -95.51025391 136.49951172 C-99.49932496 136.50029925 -103.48762429 136.47691439 -107.47649384 136.4376297 C-108.99625936 136.42717008 -110.51611397 136.42564549 -112.0358963 136.43328094 C-114.16702977 136.44291631 -116.2958345 136.42170007 -118.42675781 136.39355469 C-119.63841614 136.38990906 -120.85007446 136.38626343 -122.09844971 136.38250732 C-126.27682412 135.56022635 -127.83371126 134.17372095 -130.3125 130.75 C-130.118622 126.1343071 -128.10306276 124.04711649 -124.91146851 120.87467957 C-124.45002807 120.410527 -123.98858764 119.94637443 -123.51316416 119.46815664 C-121.96651616 117.91726634 -120.40602872 116.38110549 -118.84521484 114.84448242 C-117.73242057 113.73445408 -116.6205138 112.62353542 -115.50942993 111.51179504 C-112.48897244 108.49446327 -109.45641148 105.48956277 -106.42171049 102.48656631 C-103.24379723 99.33740658 -100.0776218 96.17649242 -96.91030884 93.01667786 C-90.90218467 87.02615982 -84.88437019 81.04548002 -78.86265814 75.06862384 C-70.04495958 66.31593541 -61.23966762 57.55077995 -52.43697548 48.7830019 C-51.78961917 48.138215 -51.14226287 47.49342811 -50.4752897 46.82910222 C-49.18356132 45.54247315 -47.89186646 44.25581044 -46.60020602 42.96911317 C-42.8313747 39.21547727 -39.05901687 35.46543217 -35.28352809 31.71849287 C-32.92611784 29.37819779 -30.57072945 27.03587476 -28.21572495 24.6931591 C-27.129502 23.6135564 -26.04238688 22.53485042 -24.95427704 21.45714951 C-19.6883446 16.24095153 -14.49869944 11.00821312 -9.69870949 5.35319996 C-4.75946895 -0.3592052 -4.75946895 -0.3592052 0 0 Z" fill="currentColor" transform="translate(91.3125,-182.875)" style="fill:rgb(255, 255, 255);stroke:none;color:rgb(255, 255, 255);stroke-width:1px;stroke-linecap:butt;stroke-linejoin:miter;opacity:1;font-family:&quot;Anthropic Sans&quot;, -apple-system, BlinkMacSystemFont, &quot;Segoe UI&quot;, sans-serif;font-size:16px;font-weight:400;text-anchor:start;dominant-baseline:auto"/>
</g>
</svg>
